<svg xmlns:x="http://ns.adobe.com/Extensibility/1.0/" xmlns:i="http://ns.adobe.com/AdobeIllustrator/10.0/" xmlns:graph="http://ns.adobe.com/Graphs/1.0/" xmlns="http://www.w3.org/2000/svg" xmlns:xlink="http://www.w3.org/1999/xlink" version="1.1" x="0px" y="0px" viewBox="0 0 100 125" enable-background="new 0 0 100 100" xml:space="preserve"><metadata><sfw xmlns="http://ns.adobe.com/SaveForWeb/1.0/"><slices/><sliceSourceBounds height="16383" width="16383" x="-8141" y="-8142" bottomLeftOrigin="true"/></sfw></metadata><g><path d="M11.5,28.5h17v-17h-17V28.5z M13.5,13.5h13v13h-13V13.5z"/><rect x="11.5" y="31.5" width="17" height="17"/><rect x="11.5" y="51.5" width="17" height="17"/><rect x="11.5" y="71.5" width="17" height="17"/><rect x="32.5" y="17.5" width="55" height="5"/><rect x="32.5" y="37.5" width="55" height="5"/><rect x="32.5" y="57.5" width="55" height="5"/><rect x="32.5" y="77.5" width="55" height="5"/><path d="M23.105,15.365l-4.212,5.897l-2.105-2.104c-0.391-0.391-1.023-0.391-1.414,0s-0.391,1.024,0,1.414l3.774,3.773l5.584-7.818   c0.321-0.449,0.217-1.074-0.232-1.395C24.051,14.811,23.425,14.915,23.105,15.365z"/></g><text x="0" y="115" fill="#000000" font-size="5px" font-weight="bold" font-family="'Helvetica Neue', Helvetica, Arial-Unicode, Arial, Sans-serif">Created by Ralf Schmitzer</text><text x="0" y="120" fill="#000000" font-size="5px" font-weight="bold" font-family="'Helvetica Neue', Helvetica, Arial-Unicode, Arial, Sans-serif">from the Noun Project</text></svg>